# xmcd
#
# Track frame offsets: 
#        150
#        15065
#        31217
#        46977
#        95622
#        109180
#        133735
#        148055
#        165892
#        191637
#        203737
#        217747
#
# Disc length: 3108 seconds
#
# Revision: 1
# Processed by: cddbd v1.5.2PL0 Copyright (c) Steve Scherf et al.
# Submitted via: ExactAudioCopyFreeDBPlugin 1.0
#
DISCID=970c220c
DTITLE=Compilations - Prologue 追憶（アルバム）
DYEAR=1994
DGENRE=Classical
TTITLE0=オンブラ・マイ・フ
TTITLE1=メロディ
TTITLE2=シシリエンヌ
TTITLE3=ピアノ協奏曲第2番～第1楽章
TTITLE4=シチリアーナ
TTITLE5=グラン・パルティータ～アダージョ
TTITLE6=ジムノペディ第1番
TTITLE7=アルハンブラの想い出
TTITLE8=タイスの瞑想曲
TTITLE9=アヴェ・マリア
TTITLE10=わが母の教え給いし歌
TTITLE11=別れの曲
EXTD=YEAR: 1994
EXTT0=
EXTT1=
EXTT2=
EXTT3=
EXTT4=
EXTT5=
EXTT6=
EXTT7=
EXTT8=
EXTT9=
EXTT10=
EXTT11=
PLAYORDER=
